<svg width="24" height="24" viewBox="0 0 24 24" fill="none" xmlns="http://www.w3.org/2000/svg">
<path d="M13.9233 6.96887C13.6385 6.66809 13.1768 6.66809 12.892 6.96887C12.6072 7.26965 12.6072 7.75731 12.892 8.05809L15.6958 11.0193H5.48617C5.08342 11.0193 4.75693 11.3642 4.75693 11.7895C4.75693 12.2149 5.08342 12.5597 5.48617 12.5597H15.8436L12.892 15.677C12.6072 15.9778 12.6072 16.4654 12.892 16.7662C13.1768 17.067 13.6385 17.067 13.9233 16.7662L18.0459 12.4122C18.3307 12.1114 18.3307 11.6237 18.0459 11.3229L17.977 11.2501C17.9737 11.2466 17.9704 11.2432 17.9671 11.2397L13.9233 6.96887Z" fill="#75767D"/>
</svg>
