<svg width="46" height="46" viewBox="0 0 46 46" fill="none" xmlns="http://www.w3.org/2000/svg">
<rect width="46" height="46" rx="23" fill="#E8F2FF"/>
<path d="M25 20V15H16V31H22.0563C22.3838 31.4171 22.7803 31.7847 23.236 32.0848L24.626 33H14.9934C14.445 33 14 32.556 14 32.0082V13.9918C14 13.4553 14.4487 13 15.0022 13H25.9968L32 19V20H25ZM23 22H32V27.949C32 28.9397 31.4987 29.8648 30.6641 30.4144L27.5 32.4978L24.3359 30.4144C23.5013 29.8648 23 28.9397 23 27.949V22ZM25 27.949C25 28.2652 25.1616 28.5634 25.4358 28.744L27.5 30.1032L29.5642 28.744C29.8384 28.5634 30 28.2652 30 27.949V24H25V27.949Z" fill="#234EF6"/>
</svg>
