<svg width="46" height="46" viewBox="0 0 46 46" fill="none" xmlns="http://www.w3.org/2000/svg">
<rect width="46" height="46" rx="23" fill="#EDE8FF"/>
<path d="M26 16.25C27.7949 16.25 29.25 14.7949 29.25 13H30.75C30.75 14.7949 32.2051 16.25 34 16.25V17.75C32.2051 17.75 30.75 19.2051 30.75 21H29.25C29.25 19.2051 27.7949 17.75 26 17.75V16.25ZM15 18C15 16.8954 15.8954 16 17 16H24V14H17C14.7909 14 13 15.7909 13 18V28C13 30.2091 14.7909 32 17 32H29C31.2091 32 33 30.2091 33 28V23H31V28C31 29.1046 30.1046 30 29 30H17C15.8954 30 15 29.1046 15 28V18Z" fill="#4D23F6"/>
</svg>
