<svg width="46" height="46" viewBox="0 0 46 46" fill="none" xmlns="http://www.w3.org/2000/svg">
<rect width="46" height="46" rx="23" fill="#E8FFEE"/>
<path d="M19 15C20.1046 15 21 15.8954 21 17V23.8271C20.1058 23.1373 18.966 22.7305 17.6644 22.5136L17.3356 24.4864C18.7162 24.7165 19.5974 25.1528 20.1402 25.7408C20.67 26.3147 21 27.167 21 28.5C21 29.8807 19.8807 31 18.5 31C17.1193 31 16 29.8807 16 28.5V28.1493C16.4301 28.2926 16.8763 28.4099 17.3356 28.4864L17.6644 26.5136C16.9215 26.3898 16.1752 26.1144 15.4291 25.7599C14.5816 25.3573 14 24.499 14 23.5C14 22.6653 14.2076 22.0085 14.5587 21.5257C14.9044 21.0504 15.4419 20.6703 16.2425 20.4701L17 20.2808V17C17 15.8954 17.8954 15 19 15ZM22 14.3542C21.2671 13.5238 20.1947 13 19 13C16.7909 13 15 14.7909 15 17V18.7742C14.149 19.1164 13.4514 19.6479 12.9413 20.3493C12.2924 21.2415 12 22.3347 12 23.5C12 25.0652 12.7957 26.4367 14 27.2422V28.5C14 30.9853 16.0147 33 18.5 33C19.9136 33 21.175 32.3482 22 31.3287C23.5 30 23 23.8271 23 23.8271V22V20.8042V19.6036C23 17.3945 23 19.1377 23 17C23 15.5 22 14.3542 22 14.3542Z" fill="#2EA823"/>
<path d="M32 17C32 16.4477 31.5523 16 31 16C30.4477 16 30 16.4477 30 17C30 17.5523 30.4477 18 31 18C31.5523 18 32 17.5523 32 17ZM31 14C32.6568 14 34 15.3432 34 17C34 18.6568 32.6568 20 31 20C29.6938 20 28.5825 19.1652 28.1707 18L28 18C26.8954 18 26 18.8954 26 20L26 26C26 27.1046 26.8954 28 28 28L28.1707 28C28.5825 26.8348 29.6938 26 31 26C32.6568 26 34 27.3431 34 29C34 30.6569 32.6568 32 31 32C29.6938 32 28.5825 31.1652 28.1707 30L28 30C25.7909 30 24 28.2091 24 26L24 24L21.8293 24L21.8293 22L24 22L24 20C24 17.7909 25.7909 16 28 16L28.1707 16C28.5825 14.8348 29.6938 14 31 14ZM32 29C32 28.4477 31.5523 28 31 28C30.4477 28 30 28.4477 30 29C30 29.5523 30.4477 30 31 30C31.5523 30 32 29.5523 32 29Z" fill="#2EA823"/>
</svg>
